<mxfile host="app.diagrams.net" modified="2022-11-02T08:51:08.977Z" agent="5.0 (Windows NT 10.0; Win64; x64) AppleWebKit/537.36 (KHTML, like Gecko) Chrome/107.0.0.0 Safari/537.36 Edg/107.0.1418.26" etag="dON7w1Mx-EwwVDigLjbv" version="20.5.1" type="github">
  <diagram id="1H10OUsN5PXFqD8tMpOQ" name="第 1 页">
    <mxGraphModel dx="1550" dy="859" grid="1" gridSize="10" guides="1" tooltips="1" connect="1" arrows="1" fold="1" page="1" pageScale="1" pageWidth="827" pageHeight="1169" math="0" shadow="0">
      <root>
        <mxCell id="0" />
        <mxCell id="1" parent="0" />
        <mxCell id="m__BaVQpfBo_4JPxNUXP-1" value="Observer" style="swimlane;fontStyle=1;align=center;verticalAlign=top;childLayout=stackLayout;horizontal=1;startSize=26;horizontalStack=0;resizeParent=1;resizeParentMax=0;resizeLast=0;collapsible=1;marginBottom=0;" vertex="1" parent="1">
          <mxGeometry x="365" y="200" width="190" height="190" as="geometry" />
        </mxCell>
        <mxCell id="m__BaVQpfBo_4JPxNUXP-2" value="- subscriber[]: Subscriber" style="text;strokeColor=none;fillColor=none;align=left;verticalAlign=top;spacingLeft=4;spacingRight=4;overflow=hidden;rotatable=0;points=[[0,0.5],[1,0.5]];portConstraint=eastwest;" vertex="1" parent="m__BaVQpfBo_4JPxNUXP-1">
          <mxGeometry y="26" width="190" height="26" as="geometry" />
        </mxCell>
        <mxCell id="m__BaVQpfBo_4JPxNUXP-14" value="- mainState" style="text;strokeColor=none;fillColor=none;align=left;verticalAlign=top;spacingLeft=4;spacingRight=4;overflow=hidden;rotatable=0;points=[[0,0.5],[1,0.5]];portConstraint=eastwest;" vertex="1" parent="m__BaVQpfBo_4JPxNUXP-1">
          <mxGeometry y="52" width="190" height="26" as="geometry" />
        </mxCell>
        <mxCell id="m__BaVQpfBo_4JPxNUXP-3" value="" style="line;strokeWidth=1;fillColor=none;align=left;verticalAlign=middle;spacingTop=-1;spacingLeft=3;spacingRight=3;rotatable=0;labelPosition=right;points=[];portConstraint=eastwest;strokeColor=inherit;" vertex="1" parent="m__BaVQpfBo_4JPxNUXP-1">
          <mxGeometry y="78" width="190" height="8" as="geometry" />
        </mxCell>
        <mxCell id="m__BaVQpfBo_4JPxNUXP-4" value="+ subscribe(sub:Subscriber)" style="text;strokeColor=none;fillColor=none;align=left;verticalAlign=top;spacingLeft=4;spacingRight=4;overflow=hidden;rotatable=0;points=[[0,0.5],[1,0.5]];portConstraint=eastwest;" vertex="1" parent="m__BaVQpfBo_4JPxNUXP-1">
          <mxGeometry y="86" width="190" height="26" as="geometry" />
        </mxCell>
        <mxCell id="m__BaVQpfBo_4JPxNUXP-11" value="+ unsubscribe(sub:Subscriber)" style="text;strokeColor=none;fillColor=none;align=left;verticalAlign=top;spacingLeft=4;spacingRight=4;overflow=hidden;rotatable=0;points=[[0,0.5],[1,0.5]];portConstraint=eastwest;" vertex="1" parent="m__BaVQpfBo_4JPxNUXP-1">
          <mxGeometry y="112" width="190" height="26" as="geometry" />
        </mxCell>
        <mxCell id="m__BaVQpfBo_4JPxNUXP-10" value="+ notifySubscribers()" style="text;strokeColor=none;fillColor=none;align=left;verticalAlign=top;spacingLeft=4;spacingRight=4;overflow=hidden;rotatable=0;points=[[0,0.5],[1,0.5]];portConstraint=eastwest;" vertex="1" parent="m__BaVQpfBo_4JPxNUXP-1">
          <mxGeometry y="138" width="190" height="26" as="geometry" />
        </mxCell>
        <mxCell id="m__BaVQpfBo_4JPxNUXP-15" value="+ mainBusinessLogic()" style="text;strokeColor=none;fillColor=none;align=left;verticalAlign=top;spacingLeft=4;spacingRight=4;overflow=hidden;rotatable=0;points=[[0,0.5],[1,0.5]];portConstraint=eastwest;" vertex="1" parent="m__BaVQpfBo_4JPxNUXP-1">
          <mxGeometry y="164" width="190" height="26" as="geometry" />
        </mxCell>
        <mxCell id="m__BaVQpfBo_4JPxNUXP-5" value="&lt;p style=&quot;margin:0px;margin-top:4px;text-align:center;&quot;&gt;&lt;i&gt;&amp;lt;&amp;lt;Interface&amp;gt;&amp;gt;&lt;/i&gt;&lt;br&gt;&lt;b&gt;Subscriber&lt;/b&gt;&lt;/p&gt;&lt;hr size=&quot;1&quot;&gt;&lt;p style=&quot;margin:0px;margin-left:4px;&quot;&gt;+ update(context)&lt;br&gt;&lt;/p&gt;" style="verticalAlign=top;align=left;overflow=fill;fontSize=12;fontFamily=Helvetica;html=1;" vertex="1" parent="1">
          <mxGeometry x="39" y="271" width="190" height="70" as="geometry" />
        </mxCell>
        <mxCell id="m__BaVQpfBo_4JPxNUXP-6" value="ConcreteSubsrcriber" style="swimlane;fontStyle=1;align=center;verticalAlign=top;childLayout=stackLayout;horizontal=1;startSize=26;horizontalStack=0;resizeParent=1;resizeParentMax=0;resizeLast=0;collapsible=1;marginBottom=0;" vertex="1" parent="1">
          <mxGeometry x="54" y="433" width="160" height="86" as="geometry" />
        </mxCell>
        <mxCell id="m__BaVQpfBo_4JPxNUXP-7" value="..." style="text;strokeColor=none;fillColor=none;align=left;verticalAlign=top;spacingLeft=4;spacingRight=4;overflow=hidden;rotatable=0;points=[[0,0.5],[1,0.5]];portConstraint=eastwest;" vertex="1" parent="m__BaVQpfBo_4JPxNUXP-6">
          <mxGeometry y="26" width="160" height="26" as="geometry" />
        </mxCell>
        <mxCell id="m__BaVQpfBo_4JPxNUXP-8" value="" style="line;strokeWidth=1;fillColor=none;align=left;verticalAlign=middle;spacingTop=-1;spacingLeft=3;spacingRight=3;rotatable=0;labelPosition=right;points=[];portConstraint=eastwest;strokeColor=inherit;" vertex="1" parent="m__BaVQpfBo_4JPxNUXP-6">
          <mxGeometry y="52" width="160" height="8" as="geometry" />
        </mxCell>
        <mxCell id="m__BaVQpfBo_4JPxNUXP-9" value="+ update(context)" style="text;strokeColor=none;fillColor=none;align=left;verticalAlign=top;spacingLeft=4;spacingRight=4;overflow=hidden;rotatable=0;points=[[0,0.5],[1,0.5]];portConstraint=eastwest;" vertex="1" parent="m__BaVQpfBo_4JPxNUXP-6">
          <mxGeometry y="60" width="160" height="26" as="geometry" />
        </mxCell>
        <mxCell id="m__BaVQpfBo_4JPxNUXP-12" value="" style="endArrow=block;dashed=1;endFill=0;endSize=12;html=1;rounded=0;exitX=0.5;exitY=0;exitDx=0;exitDy=0;entryX=0.5;entryY=1;entryDx=0;entryDy=0;" edge="1" parent="1" source="m__BaVQpfBo_4JPxNUXP-6" target="m__BaVQpfBo_4JPxNUXP-5">
          <mxGeometry width="160" relative="1" as="geometry">
            <mxPoint x="140" y="381" as="sourcePoint" />
            <mxPoint x="300" y="381" as="targetPoint" />
          </mxGeometry>
        </mxCell>
        <mxCell id="m__BaVQpfBo_4JPxNUXP-13" value="" style="endArrow=diamondThin;endFill=0;endSize=24;html=1;rounded=0;exitX=1;exitY=0.5;exitDx=0;exitDy=0;entryX=-0.005;entryY=0.792;entryDx=0;entryDy=0;entryPerimeter=0;" edge="1" parent="1" source="m__BaVQpfBo_4JPxNUXP-5" target="m__BaVQpfBo_4JPxNUXP-4">
          <mxGeometry width="160" relative="1" as="geometry">
            <mxPoint x="259" y="141" as="sourcePoint" />
            <mxPoint x="419" y="141" as="targetPoint" />
          </mxGeometry>
        </mxCell>
        <mxCell id="m__BaVQpfBo_4JPxNUXP-16" value="Client" style="html=1;fontStyle=1" vertex="1" parent="1">
          <mxGeometry x="405" y="459" width="110" height="50" as="geometry" />
        </mxCell>
        <mxCell id="m__BaVQpfBo_4JPxNUXP-17" value="Use" style="endArrow=open;endSize=12;dashed=1;html=1;rounded=0;exitX=0;exitY=0.5;exitDx=0;exitDy=0;entryX=1.001;entryY=1.038;entryDx=0;entryDy=0;entryPerimeter=0;" edge="1" parent="1" source="m__BaVQpfBo_4JPxNUXP-16" target="m__BaVQpfBo_4JPxNUXP-7">
          <mxGeometry width="160" relative="1" as="geometry">
            <mxPoint x="315" y="555" as="sourcePoint" />
            <mxPoint x="475" y="555" as="targetPoint" />
          </mxGeometry>
        </mxCell>
        <mxCell id="m__BaVQpfBo_4JPxNUXP-18" value="" style="endArrow=open;endFill=1;endSize=12;html=1;rounded=0;exitX=0.5;exitY=0;exitDx=0;exitDy=0;entryX=0.495;entryY=1;entryDx=0;entryDy=0;entryPerimeter=0;" edge="1" parent="1" source="m__BaVQpfBo_4JPxNUXP-16" target="m__BaVQpfBo_4JPxNUXP-15">
          <mxGeometry width="160" relative="1" as="geometry">
            <mxPoint x="575" y="425" as="sourcePoint" />
            <mxPoint x="735" y="425" as="targetPoint" />
          </mxGeometry>
        </mxCell>
        <mxCell id="m__BaVQpfBo_4JPxNUXP-19" value="" style="endArrow=none;dashed=1;html=1;dashPattern=1 3;strokeWidth=2;rounded=0;exitX=1;exitY=0.5;exitDx=0;exitDy=0;" edge="1" parent="1" source="m__BaVQpfBo_4JPxNUXP-10">
          <mxGeometry width="50" height="50" relative="1" as="geometry">
            <mxPoint x="589" y="340" as="sourcePoint" />
            <mxPoint x="599" y="330" as="targetPoint" />
          </mxGeometry>
        </mxCell>
        <mxCell id="m__BaVQpfBo_4JPxNUXP-20" value="for(Subscriber s : subscribers) {&lt;br&gt;&lt;span style=&quot;white-space: pre;&quot;&gt;	&lt;/span&gt;s.update(this);&lt;br&gt;}" style="shape=note;whiteSpace=wrap;html=1;backgroundOutline=1;darkOpacity=0.05;align=left;fillColor=#6d8764;fontColor=#ffffff;strokeColor=#3A5431;" vertex="1" parent="1">
          <mxGeometry x="599" y="278" width="190" height="72" as="geometry" />
        </mxCell>
        <mxCell id="m__BaVQpfBo_4JPxNUXP-21" value="" style="endArrow=none;dashed=1;html=1;dashPattern=1 3;strokeWidth=2;rounded=0;entryX=0.431;entryY=0.992;entryDx=0;entryDy=0;entryPerimeter=0;" edge="1" parent="1" target="m__BaVQpfBo_4JPxNUXP-16">
          <mxGeometry width="50" height="50" relative="1" as="geometry">
            <mxPoint x="430" y="560" as="sourcePoint" />
            <mxPoint x="460" y="540" as="targetPoint" />
          </mxGeometry>
        </mxCell>
        <mxCell id="m__BaVQpfBo_4JPxNUXP-22" value="Observer o = new Observer();&lt;br&gt;Subsrcriber s = new ConreteSubsrcriber();&lt;br&gt;o.subscribe(s);" style="shape=note;whiteSpace=wrap;html=1;backgroundOutline=1;darkOpacity=0.05;align=left;fillColor=#6d8764;fontColor=#ffffff;strokeColor=#3A5431;" vertex="1" parent="1">
          <mxGeometry x="365" y="560" width="255" height="80" as="geometry" />
        </mxCell>
        <mxCell id="m__BaVQpfBo_4JPxNUXP-24" value="mainState = newState;&lt;br&gt;notifySubscribers();" style="shape=note;whiteSpace=wrap;html=1;backgroundOutline=1;darkOpacity=0.05;align=left;fillColor=#6d8764;fontColor=#ffffff;strokeColor=#3A5431;" vertex="1" parent="1">
          <mxGeometry x="540" y="400" width="160" height="80" as="geometry" />
        </mxCell>
        <mxCell id="m__BaVQpfBo_4JPxNUXP-23" value="" style="endArrow=none;dashed=1;html=1;dashPattern=1 3;strokeWidth=2;rounded=0;" edge="1" parent="1" source="m__BaVQpfBo_4JPxNUXP-15" target="m__BaVQpfBo_4JPxNUXP-24">
          <mxGeometry width="50" height="50" relative="1" as="geometry">
            <mxPoint x="600" y="450" as="sourcePoint" />
            <mxPoint x="570" y="410" as="targetPoint" />
          </mxGeometry>
        </mxCell>
      </root>
    </mxGraphModel>
  </diagram>
</mxfile>
